
<svg width="420" height="220" xmlns="http://www.w3.org/2000/svg">

  <defs>
    <linearGradient id="grad">
      <stop offset="0%" stop-color="#58a6ff"/>
      <stop offset="100%" stop-color="#bc8cff"/>
    </linearGradient>
  </defs>

  <rect width="100%" height="100%" rx="15" fill="#0d1117"/>

  <text x="20" y="35" fill="url(#grad)" font-size="18" font-weight="bold">
    GitHub Activity
  </text>

  <!-- Score -->
  <text x="20" y="70" fill="#8b949e">Score</text>
  <text x="20" y="95" fill="#ffffff" font-size="24">
    246
  </text>

  <!-- Contributions -->
  <text x="20" y="130" fill="#8b949e">Commits</text>
  <rect x="100" y="120" width="49.2" height="8" rx="4" fill="#3fb950"/>

  <text x="20" y="155" fill="#8b949e">PRs</text>
  <rect x="100" y="145" width="0" height="8" rx="4" fill="#f2cc60"/>

  <text x="20" y="180" fill="#8b949e">Issues</text>
  <rect x="100" y="170" width="0" height="8" rx="4" fill="#ff7b72"/>

  <!-- Languages -->
  <text x="200" y="60" fill="#8b949e">Top Languages</text>
  
    <text x="200" y="90" fill="#c9d1d9">TypeScript</text>
    <rect x="270" y="80" width="120" height="10" rx="5" fill="#58a6ff"/>
  
    <text x="200" y="115" fill="#c9d1d9">HTML</text>
    <rect x="270" y="105" width="22.901503068562754" height="10" rx="5" fill="#58a6ff"/>
  
    <text x="200" y="140" fill="#c9d1d9">Astro</text>
    <rect x="270" y="130" width="19.156567828876792" height="10" rx="5" fill="#58a6ff"/>
  
    <text x="200" y="165" fill="#c9d1d9">JavaScript</text>
    <rect x="270" y="155" width="14.904528954278666" height="10" rx="5" fill="#58a6ff"/>
  
    <text x="200" y="190" fill="#c9d1d9">Python</text>
    <rect x="270" y="180" width="10.40144867625868" height="10" rx="5" fill="#58a6ff"/>
  

</svg>
